HIERARCHY
ROOT Hips
{
  OFFSET -24.0275 60.4208 48.1599
  CHANNELS 6 Xposition Yposition Zposition Zrotation Xrotation Yrotation
  JOINT RightUpLeg
  {
    OFFSET -8.9458 -8.66707 0.101652
    CHANNELS 3 Zrotation Xrotation Yrotation
    JOINT RightLeg
    {
      OFFSET 0 -44.4227 1.3727
      CHANNELS 3 Zrotation Xrotation Yrotation
      JOINT RightFoot
      {
        OFFSET 0.253549 -42.0924 -1.46059
        CHANNELS 3 Zrotation Xrotation Yrotation
        JOINT RightToes
        {
          OFFSET 0.04 -4.41509 8.4991
          CHANNELS 3 Zrotation Xrotation Yrotation
          End Site
          {
            OFFSET -0.08 -0.137448 9.77979
          }
        }
      }
    }
  }
  JOINT Spine
  {
    OFFSET 0 11.8905 0
    CHANNELS 3 Zrotation Xrotation Yrotation
    JOINT Spine1
    {
      OFFSET 0 25.6574 0.127663
      CHANNELS 3 Zrotation Xrotation Yrotation
      JOINT HEad
      {
        OFFSET 0 8.73416 0.011341
        CHANNELS 3 Zrotation Xrotation Yrotation
        End Site
        {
          OFFSET -0.29 12.7742 2.51395
        }
      }
      JOINT LeftShoulder1
      {
        OFFSET 8.99 -0.362252 -0.22
        CHANNELS 3 Zrotation Xrotation Yrotation
        JOINT LeftArm
        {
          OFFSET 10.2827 -0.00338 0.322123
          CHANNELS 3 Zrotation Xrotation Yrotation
          JOINT LeftForeArm
          {
            OFFSET 32.7669 0.099144 -1.42434
            CHANNELS 3 Zrotation Xrotation Yrotation
            JOINT LeftHand
            {
              OFFSET 27.5643 0.085362 1.02216
              CHANNELS 3 Zrotation Xrotation Yrotation
              End Site
              {
                OFFSET 16.7443 -0.6 1.50291
              }
            }
          }
        }
      }
      JOINT RightShoulder
      {
        OFFSET -8.99 -0.362252 -0.22
        CHANNELS 3 Zrotation Xrotation Yrotation
        JOINT RightArm
        {
          OFFSET -10.2827 -0.00338 0.322123
          CHANNELS 3 Zrotation Xrotation Yrotation
          JOINT RightForeArm
          {
            OFFSET -32.8971 0.099144 -1.42434
            CHANNELS 3 Zrotation Xrotation Yrotation
            JOINT RightHand
            {
              OFFSET -27.4921 0.085362 1.02216
              CHANNELS 3 Zrotation Xrotation Yrotation
              End Site
              {
                OFFSET -16.6312 -0.6 1.50291
              }
            }
          }
        }
      }
    }
  }
  JOINT LeftUpLeg
  {
    OFFSET 8.9458 -8.66707 0.101652
    CHANNELS 3 Zrotation Xrotation Yrotation
    JOINT LeftLeg
    {
      OFFSET 0 -44.4227 1.3727
      CHANNELS 3 Zrotation Xrotation Yrotation
      JOINT LeftFoot
      {
        OFFSET -0.253549 -42.0924 -1.46059
        CHANNELS 3 Zrotation Xrotation Yrotation
        JOINT LeftToes
        {
          OFFSET -0.04 -4.41509 8.4991
          CHANNELS 3 Zrotation Xrotation Yrotation
          End Site
          {
            OFFSET 0.08 -0.047448 9.77979
          }
        }
      }
    }
  }
}
MOTION
Frames:	6
Frame Time:	0.0166667
0.226573 109.676 -0.182416 1.64519 6.97003 162.128 -1.7127 3.18881 -11.3355 1.79271 15.2457 -18.1139 1.76378 -11.1349 4.24527 0.0462048 0.000533403 0.662642 -0.368798 -1.75762 -1.12791 -0.772684 -3.50204 -2.26914 1.64065 27.6891 9.8668 0 0 -3.18055e-015 -6.12098 -38.7317 -16.9616 -3.63117 31.4491 -5.28288 1.6163 22.5407 4.9595 -1.95591e-008 -1.64207e-006 -1.94768e-006 -7.26298 -34.9864 -1.98098 1.51586 29.1471 -1.16353 0.106086 21.8041 -1.9466 -3.16482 1.27874 -11.6242 5.65225 17.3849 -21.5002 -3.51852 -12.4025 -0.179038 -1.43483e-009 1.55999e-007 -4.85534e-009 
0.226425 109.676 -0.182977 1.64516 6.97335 162.133 -1.71807 3.19504 -11.3342 1.79407 15.2469 -18.1169 1.7675 -11.1381 4.33165 0.0462048 0.000533403 0.662642 -0.368053 -1.75726 -1.1279 -0.771185 -3.50132 -2.26909 1.65404 27.6885 9.87008 7.95139e-016 1.59028e-015 3.18055e-015 -6.10599 -38.7372 -16.97 -3.64679 31.4413 -5.27073 1.55442 22.5255 4.96314 -1.95591e-008 -1.64207e-006 -1.94768e-006 -7.2568 -35.0024 -1.97259 1.50118 29.1811 -1.14511 0.110359 21.8016 -1.92629 -3.16376 1.28437 -11.5986 5.65289 17.3882 -21.4977 -3.51602 -12.4043 -0.184417 -1.43483e-009 1.55999e-007 -4.85534e-009 
0.226139 109.676 -0.182701 1.64533 6.97994 162.142 -1.71651 3.19763 -11.3301 1.79813 15.2489 -18.1271 1.75907 -11.1415 4.23372 0.0462048 0.000533403 0.662642 -0.367289 -1.75716 -1.128 -0.768996 -3.50244 -2.26896 1.66156 27.6868 9.87063 7.95139e-016 1.59028e-015 -3.18055e-015 -6.09054 -38.7415 -16.9799 -3.63359 31.4228 -5.27628 1.52078 22.5124 4.95747 -1.95591e-008 -1.64207e-006 -1.94768e-006 -7.2619 -35.0061 -1.96251 1.48912 29.202 -1.12997 0.121844 21.7882 -1.91263 -3.17518 1.28739 -11.6327 5.65272 17.3916 -21.4981 -3.51129 -12.4052 -0.19201 -1.43483e-009 1.55999e-007 -4.85535e-009 
0.22579 109.676 -0.182633 1.64539 6.98424 162.146 -1.72295 3.19951 -11.3208 1.80142 15.2518 -18.1332 1.7644 -11.1434 4.22786 0.0462048 0.000533403 0.662642 -0.366574 -1.75718 -1.12808 -0.766709 -3.50435 -2.26903 1.66329 27.6857 9.87001 7.95139e-016 1.59028e-015 3.18055e-015 -6.08413 -38.7417 -16.9909 -3.60061 31.4025 -5.31287 1.52457 22.4817 4.94834 -1.95591e-008 -1.64207e-006 -1.94768e-006 -7.27565 -34.9949 -1.93636 1.48308 29.2089 -1.13124 0.140236 21.7704 -1.90729 -3.17325 1.29204 -11.5986 5.65203 17.3945 -21.4998 -3.50879 -12.4062 -0.193679 -1.43483e-009 1.55999e-007 -4.85533e-009 
0.222361 109.676 -0.182497 1.64477 6.9889 162.155 -1.72885 3.20134 -11.318 1.80529 15.2543 -18.1421 1.77092 -11.1445 4.26496 0.0462048 0.000533403 0.662642 -0.365835 -1.75731 -1.12814 -0.76501 -3.50662 -2.2692 1.66201 27.6879 9.86892 1.59028e-015 3.18055e-015 6.36111e-015 -6.08391 -38.7401 -17.0029 -3.56852 31.3947 -5.36714 1.55622 22.4459 4.92378 -1.95591e-008 -1.64207e-006 -1.94768e-006 -7.28882 -35.0051 -1.89637 1.46695 29.2334 -1.12831 0.155856 21.7598 -1.91199 -3.18187 1.29604 -11.5986 5.65091 17.3965 -21.5023 -3.50716 -12.4071 -0.195526 -1.43483e-009 1.55999e-007 -4.85535e-009 
0.219851 109.676 -0.181642 1.644 6.99402 162.164 -1.73127 3.204 -11.3174 1.80857 15.2561 -18.1505 1.77127 -11.1469 4.19138 0.0462048 0.000533403 0.662642 -0.365001 -1.75753 -1.12818 -0.76363 -3.50883 -2.2694 1.65862 27.6978 9.86715 7.95139e-016 0 -0 -6.05235 -38.7401 -16.9973 -3.55513 31.4063 -5.41401 1.58836 22.4209 4.86802 -1.95591e-008 -1.64207e-006 -1.94768e-006 -7.29527 -35.0191 -1.86154 1.43542 29.2624 -1.10458 0.154509 21.7451 -1.91317 -3.18917 1.29726 -11.6981 5.64982 17.3979 -21.5047 -3.50535 -12.408 -0.197399 -1.43483e-009 1.55999e-007 -4.85534e-009 
